<svg width="10" height="10" viewBox="0 0 10 10" fill="none" xmlns="http://www.w3.org/2000/svg">
<path fill-rule="evenodd" clip-rule="evenodd" d="M5.99986 4.96665C6.69986 5.66665 7.3332 6.29998 7.96653 6.93332C8.56653 7.53332 9.16653 8.13332 9.7332 8.69998C10.0665 9.03332 10.0665 9.46665 9.76653 9.76665C9.46653 10.0667 9.0332 10.0333 8.7332 9.69998C7.56653 8.53332 6.36653 7.33332 5.19986 6.16665C5.1332 6.09998 5.09986 6.03332 4.96653 5.89998C4.89986 5.99998 4.89986 6.09998 4.8332 6.13332C3.66653 7.36665 2.46653 8.53332 1.29986 9.73332C1.09986 9.93332 0.833196 10.0667 0.533196 9.96665C-0.00013717 9.83332 -0.166804 9.19998 0.199863 8.79998C0.26653 8.73332 0.333196 8.66665 0.399863 8.59998C1.5332 7.46665 2.66653 6.33332 3.8332 5.19999C3.89986 5.13332 3.96653 5.09998 4.0332 5.06665C4.0332 5.03332 4.06653 4.99998 4.06653 4.96665C3.99986 4.93332 3.89986 4.89998 3.86653 4.83332C2.6332 3.66665 1.46653 2.46665 0.299863 1.29998C-0.0334705 0.966652 -0.0668038 0.566652 0.199863 0.266652C0.466529 -0.0333483 0.933196 -0.0666817 1.2332 0.233318C1.56653 0.533318 1.86653 0.866652 2.16653 1.16665C3.09986 2.09998 4.0332 3.03332 4.99986 3.99998C5.06653 3.93332 5.1332 3.86665 5.19986 3.83332C6.36653 2.66665 7.5332 1.53332 8.66653 0.366652C8.8332 0.199985 8.99986 0.099985 9.2332 0.099985C9.5332 0.099985 9.76653 0.233318 9.89986 0.499985C10.0332 0.766652 9.96653 1.03332 9.79986 1.23332C9.7332 1.33332 9.66653 1.39998 9.59986 1.46665C8.46653 2.56665 7.36653 3.69998 6.2332 4.79998C6.16653 4.86665 6.09986 4.89998 5.99986 4.96665Z" fill="currentColor"/>
</svg>
